<?xml version="1.0" encoding="utf-8"?>
<!-- Generator: Adobe Illustrator 26.3.1, SVG Export Plug-In . SVG Version: 6.00 Build 0)  -->
<svg version="1.1" id="Calque_1" xmlns="http://www.w3.org/2000/svg" xmlns:xlink="http://www.w3.org/1999/xlink" x="0px" y="0px"
	 viewBox="0 0 299 98" style="enable-background:new 0 0 299 98;" xml:space="preserve">
<style type="text/css">
	.st0{enable-background:new    ;}
	.st1{fill:#FFFFFF;}
	.st2{fill:#00A4A8;}
</style>
<g id="Calque_1_00000101798661510896022240000009396243627432419208_">
</g>
<g class="st0">
	<path class="st1" d="M104.7,68.9V24.7h14.2c3.9,0,7.4,0.9,10.5,2.7c3.1,1.8,5.5,4.3,7.3,7.5c1.7,3.2,2.6,6.8,2.7,10.8v2
		c0,4-0.9,7.7-2.6,10.9s-4.1,5.7-7.2,7.5c-3.1,1.8-6.6,2.7-10.4,2.7H104.7z M115.4,32.9v27.8h3.7c3.1,0,5.4-1.1,7-3.3
		c1.6-2.2,2.5-5.4,2.5-9.7v-1.9c0-4.3-0.8-7.5-2.5-9.6c-1.6-2.2-4-3.2-7.2-3.2H115.4z"/>
	<path class="st1" d="M169.3,60.6h-14.6l-2.5,8.2h-11.4L157,24.7h10l16.3,44.2h-11.4L169.3,60.6z M157.3,52.4h9.5L162,37.1
		L157.3,52.4z"/>
	<path class="st1" d="M197.2,60.7h18.5v8.2h-29.2V24.7h10.6V60.7z"/>
	<path class="st1" d="M230.9,60.7h18.5v8.2h-29.2V24.7h10.6V60.7z"/>
	<path class="st1" d="M297.2,51.3H280v17.6h-10.6V24.7h29.5v8.2H280v10.2h17.2V51.3z"/>
</g>
<ellipse transform="matrix(0.2298 -0.9732 0.9732 0.2298 150.942 284.3234)" class="st1" cx="255.1" cy="46.8" rx="5.2" ry="5.2"/>
<g>
	<path class="st2" d="M39.9,0.1c0.1,0,0.1,0,0.2,0c0,5.6,0,11.1,0,16.7c0,0.7-0.2,1.1-0.8,1.4c-4.8,2.8-9.6,5.6-14.4,8.3
		c-1.1,0.6-1.1,1.2,0,1.8c5.8,3.4,11.7,6.7,17.5,10.1c1,0.6,1.8,0.6,2.8,0C50,35.7,55,32.8,59.9,30c1-0.6,2.1-1.2,3.1-1.8
		c0.6-0.4,0.7-0.9,0.1-1.4c-0.2-0.2-0.5-0.3-0.8-0.5c-4.5-2.6-9.1-5.3-13.6-7.9c-0.9-0.5-1.3-1-1.3-2.1c0.1-5.4,0-10.8,0-16.2
		c0.1,0,0.1,0,0.2,0c0.4,0.2,0.7,0.5,1.1,0.7c12.5,7.2,25,14.5,37.5,21.7c0.7,0.4,0.9,0.8,0.9,1.6c0,14.5,0,29,0,43.6
		c0,0.3,0,0.7,0,1.1c-0.3-0.1-0.4-0.1-0.5-0.2c-4.7-2.6-9.4-5.3-14.2-7.9c-0.5-0.3-0.6-0.7-0.6-1.2c0-5.6,0-11.1,0-16.7
		c0-1.5-0.4-1.7-1.7-1c-5.8,3.4-11.6,6.7-17.5,10c-0.9,0.5-1.3,1.2-1.3,2.2c0,6.8,0,13.6,0,20.3c0,1.5,0.4,1.8,1.7,1
		c4.8-2.8,9.6-5.5,14.4-8.3c0.6-0.3,0.9-0.3,1.5,0c3.3,1.9,6.6,3.8,9.9,5.7c1.5,0.9,3,1.7,4.6,2.6c-0.5,0.3-0.8,0.5-1.1,0.6
		c-12.7,7.5-25.3,14.7-37.8,22c-0.6,0.4-1.1,0.4-1.7,0c-12.6-7.3-25.3-14.7-38-22c-0.2-0.1-0.5-0.3-0.7-0.5c0.3-0.2,0.6-0.4,0.8-0.5
		c4.5-2.6,8.9-5.1,13.4-7.8c0.6-0.4,1.1-0.4,1.7,0c4.8,2.8,9.6,5.6,14.4,8.3c1,0.6,1.4,0.3,1.4-0.7c0-6.9,0-13.7,0-20.6
		c0-1.2-0.4-2-1.5-2.6c-5.7-3.2-11.4-6.5-17-9.8c-1.4-0.8-2-0.2-2,1.1c0.1,5.4,0,10.8,0,16.2c0,0.8-0.2,1.2-0.9,1.6
		c-4.5,2.6-9,5.2-13.4,7.8c-0.3,0.2-0.5,0.3-0.9,0.5c0-0.4,0-0.6,0-0.9c0-14.7,0-29.4,0-44.1c0-0.7,0.4-1,0.9-1.3
		c10.6-6.1,21.2-12.1,31.8-18.2C35.1,3,37.5,1.6,39.9,0.1z"/>
</g>
</svg>
